PathFileType  4	(X/Y/Z) C:\Users\antoi\Documents\MyRepositories\mobilecap\ResultsAnalysis
DataRate	CameraRate	NumFrames	NumMarkers	Units	OrigDataRate	OrigDataStartFrame	OrigNumFrames
100.0	100.0	6	51	mm	100.0	113	150
Frame#	Time	r_knee			r_shank_antsup			r_ankle			r_calc			r_5meta			r_toe			L_knee			L_shank_antsup			L_ankle			L_calc			L_5meta			L_toe			r_sh2			r_sh3			r_sh4			L_sh2			L_sh3			r_thigh1			r_thigh2			r_thigh3			r_thigh4			r_thigh5			L_thigh1			L_thigh2			L_thigh3			L_thigh4			r.ASIS			r.PSIS			L.ASIS			L.PSIS			C7			R_Shoulder			L_Shoulder			R_Sternum			L_Sternum			R_humerus			R_elbow_med			R_elbow_lat			R_forearm			R_wrist_radius			R_wrist_ulna			L_humerus			L_elbow_med			L_elbow_lat			L_forearm			L_wrist_radius			L_wrist_ulna			R_HJC			L_HJC			R_HJC_reg			L_HJC_reg			
		X1	Y1	Z1	X2	Y2	Z2	X3	Y3	Z3	X4	Y4	Z4	X5	Y5	Z5	X6	Y6	Z6	X7	Y7	Z7	X8	Y8	Z8	X9	Y9	Z9	X10	Y10	Z10	X11	Y11	Z11	X12	Y12	Z12	X13	Y13	Z13	X14	Y14	Z14	X15	Y15	Z15	X16	Y16	Z16	X17	Y17	Z17	X18	Y18	Z18	X19	Y19	Z19	X20	Y20	Z20	X21	Y21	Z21	X22	Y22	Z22	X23	Y23	Z23	X24	Y24	Z24	X25	Y25	Z25	X26	Y26	Z26	X27	Y27	Z27	X28	Y28	Z28	X29	Y29	Z29	X30	Y30	Z30	X31	Y31	Z31	X32	Y32	Z32	X33	Y33	Z33	X34	Y34	Z34	X35	Y35	Z35	X36	Y36	Z36	X37	Y37	Z37	X38	Y38	Z38	X39	Y39	Z39	X40	Y40	Z40	X41	Y41	Z41	X42	Y42	Z42	X43	Y43	Z43	X44	Y44	Z44	X45	Y45	Z45	X46	Y46	Z46	X47	Y47	Z47	X48	Y48	Z48	X49	Y49	Z49	X50	Y50	Z50	X51	Y51	Z51	

113	1.12000000	1217.19957	545.90817	-30.31178	1252.40445	474.00585	-18.64344	1277.90437	112.03536	-50.60100	1229.11699	57.25224	-103.44742	1425.89582	52.98039	-7.34635	1460.39276	88.28190	-61.53171	1018.50635	532.34067	-310.96057	1024.13536	408.17862	-314.28860	897.52040	103.23571	-288.07463	821.49924	60.49359	-256.72471	1048.26444	30.67054	-317.24417	1065.12419	55.48557	-248.99097	1272.25270	363.08670	-11.94559	1178.40457	461.00863	-6.01930	1190.16545	346.49146	-11.94472	941.36727	436.42609	-338.15152	915.17878	318.09464	-334.44056	1190.77563	864.21286	5.71202	1233.21811	763.40222	-8.47594	1190.64973	716.16329	19.09097	1087.10034	818.12653	8.82259	1135.73052	713.06403	4.14734	1133.66245	846.01420	-343.79266	1124.99690	710.03605	-332.47505	1015.62755	851.85005	-348.05909	1014.82907	711.06508	-341.27459	1173.64894	1045.43198	-46.91328	983.66293	1098.42187	-119.67491	1171.68517	1033.08377	-305.23921	980.87234	1098.33048	-222.09152	1050.91153	1587.05538	-291.25296	1089.09160	1588.78455	-107.98021	1128.73360	1530.60907	-422.17429	1194.30024	1518.11096	-223.86301	1201.38885	1504.73644	-279.39014	989.06305	1360.04516	26.15081	943.98313	1264.55287	-35.24944	943.77701	1283.62043	46.16300	986.49148	1137.71524	104.03223	1015.33952	1027.52880	124.00697	971.25990	1033.61481	132.78092	1186.33773	1292.02512	-523.80092	1169.47622	1178.96444	-477.84861	1193.36529	1201.17770	-541.12964	1340.47902	1105.91433	-555.12832	1426.34567	1057.66978	-542.63211	1405.16408	1029.95372	-560.82715	1082.85352	974.10551	-47.41711	1079.61367	965.76568	-277.61017	1095.58817	969.87518	-81.23457	1090.93721	969.72379	-251.86506	
114	1.13000000	1225.38331	543.31558	-29.98207	1263.61289	473.28043	-18.93770	1304.41314	112.14226	-49.36664	1256.91594	55.54021	-101.71816	1455.43383	58.40422	-9.02779	1487.82091	95.32950	-63.50064	1025.09275	531.93460	-311.42778	1028.97832	407.48038	-314.68960	898.19432	104.26662	-288.02105	821.73999	61.88236	-256.59087	1048.25000	30.58637	-317.32362	1065.10249	55.28471	-248.97560	1288.19290	363.27026	-11.97046	1190.36875	457.18521	-5.21834	1206.91269	343.26368	-11.04490	946.52963	436.95121	-338.26848	918.64725	318.96208	-334.52059	1200.78066	861.77347	5.07867	1241.96428	760.44281	-9.31872	1199.39348	713.78473	19.28206	1096.74894	816.86478	8.70816	1144.15107	710.86993	4.33214	1143.10771	844.83899	-344.42522	1133.41746	708.94395	-332.84798	1025.10028	851.60524	-348.53433	1023.18060	710.83107	-341.47448	1185.20592	1044.04357	-47.60295	994.95079	1096.67840	-120.00739	1182.92035	1032.01123	-306.02922	992.06488	1096.70917	-222.32496	1060.94778	1586.70367	-288.22198	1099.54744	1587.04696	-105.06686	1138.41762	1531.94643	-419.57160	1204.54550	1517.46124	-221.73436	1211.58130	1504.54297	-277.34123	1001.02343	1356.71706	27.40629	956.63005	1261.39681	-34.69280	955.99143	1279.99403	46.86650	999.23120	1134.06695	104.21267	1028.59622	1023.95009	123.82588	984.23347	1029.61755	132.27525	1196.72575	1293.99201	-522.21372	1180.22532	1180.63472	-476.67327	1204.28736	1203.18634	-539.85946	1352.87678	1110.02949	-552.91182	1439.32226	1063.10754	-539.91540	1418.71280	1035.09947	-558.19144	1094.60283	972.49203	-48.06506	1091.00843	964.45535	-278.26454	1107.23302	968.31275	-81.95978	1102.41712	968.36511	-252.64344	
115	1.14000000	1233.82658	540.88943	-29.64917	1274.72523	472.66134	-19.23360	1328.57173	112.51015	-48.41721	1282.51529	54.05406	-100.03598	1482.73598	64.54547	-11.16988	1512.70065	102.96250	-65.93286	1032.14734	531.50807	-311.92048	1034.21575	406.78314	-315.17475	898.98360	105.42086	-288.06997	822.00851	63.57952	-256.55328	1048.26962	30.48768	-317.42616	1065.12389	55.08147	-248.99735	1303.37015	363.57515	-12.09573	1202.25033	453.92223	-4.34688	1222.90787	340.64406	-10.05802	952.08428	437.52550	-338.47256	922.43530	319.92755	-334.72364	1211.10351	859.55749	4.31572	1251.16882	757.75038	-10.11370	1208.64000	711.67263	19.51138	1106.76614	815.69497	8.70433	1153.09821	708.95449	4.62493	1152.95501	843.62544	-344.92073	1142.25114	707.79524	-333.12530	1034.99092	851.26391	-349.04380	1031.97998	710.54837	-341.76598	1196.83701	1042.62491	-48.20378	1006.33707	1094.85887	-120.32545	1194.42570	1030.84614	-306.73044	1003.41357	1095.02119	-222.55745	1070.97992	1586.28649	-285.07055	1109.99026	1585.19602	-102.04461	1148.12024	1533.26879	-416.86134	1214.81332	1516.75485	-219.49243	1221.81765	1504.30691	-275.16563	1012.99289	1353.29595	28.74867	969.27598	1258.17104	-34.03879	968.24090	1276.26748	47.66120	1012.06044	1130.30940	104.42127	1041.97991	1020.26962	123.63204	997.38251	1025.53862	131.79884	1206.94448	1295.86252	-520.56424	1190.65373	1182.24247	-475.45696	1214.95496	1205.10430	-538.51503	1364.86399	1113.84239	-550.56522	1451.74916	1068.14646	-537.02165	1431.68631	1039.82811	-555.36445	1106.44212	970.83170	-48.64830	1102.62378	963.06413	-278.85455	1119.00702	966.66058	-82.64620	1114.12322	966.93252	-253.38672	
116	1.15000000	1242.66729	538.70514	-29.37587	1285.80987	472.11342	-19.56351	1350.28236	112.83424	-47.88808	1305.70957	52.59348	-98.48417	1507.42216	70.84275	-13.68859	1534.77027	110.54755	-68.75759	1039.72185	531.05248	-312.43005	1039.92864	406.09617	-315.75639	899.92098	106.71351	-288.23453	822.35433	65.57947	-256.63768	1048.34036	30.37519	-317.55112	1065.18063	54.87101	-249.05411	1317.77575	363.88303	-12.33858	1214.07245	451.23835	-3.48216	1238.07152	338.57512	-9.06544	958.10118	438.14287	-338.77553	926.59201	320.98391	-335.05602	1221.81322	857.62747	3.45957	1260.92550	755.39339	-10.86334	1218.43414	709.86041	19.65035	1117.21555	814.66214	8.75958	1162.63804	707.37830	4.91893	1163.22307	842.38283	-345.27066	1151.52512	706.60233	-333.31247	1045.30779	850.82033	-349.56948	1041.23739	710.21121	-342.14514	1208.51241	1041.26410	-48.66360	1017.78256	1093.03643	-120.62895	1206.17437	1029.58286	-307.29960	1014.90846	1093.31478	-222.79907	1081.00968	1585.84275	-281.81314	1120.39652	1583.24337	-98.92735	1157.82445	1534.58586	-414.05445	1225.10948	1516.02606	-217.14585	1232.09729	1504.05566	-272.86915	1024.97622	1349.79371	30.17966	981.90488	1254.87965	-33.26668	980.53411	1272.45210	48.55608	1024.99352	1126.45492	104.66290	1055.49902	1016.49672	123.43119	1010.73103	1021.40260	131.36927	1216.99814	1297.64330	-518.85579	1200.77971	1183.79236	-474.18453	1225.36485	1206.93702	-537.08909	1376.43308	1117.34556	-548.10124	1463.66847	1072.77389	-533.96966	1444.09221	1044.13783	-552.36199	1118.32249	969.22071	-49.11015	1114.43474	961.60523	-279.32100	1130.85575	964.97707	-83.24670	1126.05039	965.44285	-254.05754	
117	1.16000000	1252.05577	536.82452	-29.21122	1296.95199	471.57324	-19.93917	1369.46126	112.88075	-47.84323	1326.21948	51.04246	-97.15808	1529.11160	76.60952	-16.48054	1553.82969	117.34382	-71.88594	1047.85264	530.55690	-312.94017	1046.22133	405.44224	-316.44072	901.03014	108.16475	-288.52022	822.83159	67.88403	-256.86061	1048.46145	30.25242	-317.69798	1065.24442	54.64484	-249.13873	1331.41834	364.05269	-12.70445	1225.87105	449.11995	-2.69470	1252.34165	336.98140	-8.15354	964.64220	438.79783	-339.18104	931.15577	322.12556	-335.50556	1232.94682	856.02211	2.57141	1271.28656	753.42174	-11.57881	1228.80345	708.36337	19.60390	1128.12809	813.79170	8.81535	1172.80260	706.12627	5.13142	1173.90071	841.12598	-345.46662	1161.25262	705.38894	-333.41870	1056.03784	850.28117	-350.08146	1050.95212	709.81221	-342.58047	1220.21174	1040.04851	-48.93783	1029.26253	1091.27619	-120.92340	1218.12534	1028.23368	-307.70426	1026.53768	1091.63104	-223.05730	1091.05303	1585.40388	-278.46963	1130.75234	1581.21592	-95.73474	1167.51956	1535.90339	-411.16550	1235.43473	1515.30974	-214.70914	1242.41614	1503.81734	-270.46501	1036.97913	1346.23359	31.69169	994.51065	1251.52561	-32.36842	992.87608	1268.56980	49.54966	1038.03585	1122.52770	104.93996	1069.15990	1012.65697	123.22799	1024.28123	1017.23239	130.99265	1226.88532	1299.34635	-517.08138	1210.63163	1185.28001	-472.82614	1235.51385	1208.69266	-535.57600	1387.57120	1120.53390	-545.53045	1475.11088	1076.98235	-530.77388	1455.94584	1048.04056	-549.20230	1130.21111	967.74940	-49.40479	1126.41798	960.09808	-279.61552	1142.74175	963.32556	-83.71042	1138.18268	963.91926	-254.61597	
118	1.17000000	1262.11699	535.28726	-29.19500	1308.22448	470.96670	-20.36488	1385.99327	112.51010	-48.25184	1343.72527	49.38274	-96.13637	1547.50611	81.12415	-19.44200	1569.79673	122.60946	-75.20788	1056.55462	530.00953	-313.42716	1053.21105	404.86506	-317.21189	902.32759	109.80259	-288.92280	823.48563	70.51399	-257.22327	1048.61634	30.12308	-317.86514	1065.27563	54.39118	-249.24420	1344.31137	363.94539	-13.19475	1237.67138	447.52711	-2.05112	1265.67491	335.77164	-7.40954	971.74932	439.49115	-339.67925	936.15541	323.35644	-336.04617	1244.51250	854.76097	1.73212	1282.26893	751.86911	-12.26232	1239.76339	707.18479	19.33952	1139.50746	813.09043	8.82519	1183.60329	705.14303	5.21832	1184.95322	839.87416	-345.50029	1171.43861	704.18250	-333.44658	1067.14614	849.67036	-350.54201	1061.12251	709.34125	-343.01867	1231.92987	1039.04339	-48.99831	1040.77856	1089.62638	-121.21361	1230.23835	1026.83118	-307.92350	1038.29394	1090.00272	-223.33150	1101.13525	1584.99442	-275.06252	1141.05730	1579.15505	-92.48970	1177.20663	1537.22515	-408.21422	1245.78857	1514.63748	-212.20033	1252.76990	1503.62058	-267.97272	1049.00258	1342.64871	33.26929	1007.09275	1248.11294	-31.35035	1005.26479	1264.65214	50.63147	1051.18356	1118.56372	105.25139	1082.96481	1008.79084	123.02436	1038.01856	1013.05397	130.66697	1236.59662	1300.98528	-515.23116	1220.23964	1186.69622	-471.34886	1245.39841	1210.38186	-533.97427	1398.26712	1123.40693	-542.85862	1486.08907	1080.77003	-527.44166	1467.26874	1051.55598	-545.90607	1142.09907	966.48270	-49.50583	1138.55927	958.57101	-279.70996	1154.65624	961.76426	-83.99192	1150.49633	962.39396	-255.02242	
